<svg xmlns="http://www.w3.org/2000/svg" xmlns:xlink="http://www.w3.org/1999/xlink" viewBox="0 0 156.65 44"><defs><style>.cls-1{fill:url(#linear-gradient);}.cls-2{fill:url(#linear-gradient-2);}.cls-3{fill:url(#linear-gradient-3);}.cls-4{fill:url(#linear-gradient-4);}.cls-5{fill:#001d43;}</style><linearGradient id="linear-gradient" y1="22" x2="32.8" y2="22" gradientUnits="userSpaceOnUse"><stop offset="0" stop-color="#0054b9"/><stop offset="0.59" stop-color="#0054b9"/><stop offset="0.67" stop-color="#0256bd"/><stop offset="0.75" stop-color="#085ec9"/><stop offset="0.84" stop-color="#126add"/><stop offset="0.92" stop-color="#1f7cfa"/><stop offset="0.93" stop-color="#227fff"/></linearGradient><linearGradient id="linear-gradient-2" x1="11.63" y1="34.23" x2="43.49" y2="34.23" gradientUnits="userSpaceOnUse"><stop offset="0.06" stop-color="#0054b9"/><stop offset="0.16" stop-color="#0d64d3"/><stop offset="0.27" stop-color="#1873eb"/><stop offset="0.38" stop-color="#207cfa"/><stop offset="0.47" stop-color="#227fff"/></linearGradient><linearGradient id="linear-gradient-3" x1="11.63" y1="34.09" x2="43.49" y2="34.09" gradientUnits="userSpaceOnUse"><stop offset="0.06" stop-color="#0054b9"/><stop offset="0.39" stop-color="#0275ee"/><stop offset="0.71" stop-color="#0264f6"/><stop offset="1" stop-color="#025bfa"/></linearGradient><linearGradient id="linear-gradient-4" x1="3.51" y1="45.82" x2="24.98" y2="2.58" gradientUnits="userSpaceOnUse"><stop offset="0.29" stop-color="#005bcc"/><stop offset="0.64" stop-color="#227fff"/></linearGradient></defs><title>login</title><g id="Layer_2" data-name="Layer 2"><g id="Layer_1-2" data-name="Layer 1"><path class="cls-1" d="M22,0,0,44H3.88C11.25,44,20,38.54,23.81,31.13l6.85-13.71Z"/><path class="cls-2" d="M25.46,25.13a16.59,16.59,0,0,0-4.7-.66,19.54,19.54,0,0,0-9.13,2.32c3.11.75,6.51,2.71,9.79,6.84,10.33,13,22.07,10.09,22.07,10.09S39.11,28.88,25.46,25.13Z"/><path class="cls-3" d="M25.46,25.13a19,19,0,0,0-13.83,1.66l.13,0c20-3,15.8,13.07,31.73,16.9C43.49,43.72,39.11,28.88,25.46,25.13Z"/><path class="cls-4" d="M26.33,8.75,22,0,0,44H4.29L15.81,20.9C19.38,14,23,10.84,26.33,8.75Z"/><path class="cls-5" d="M144.35,24.24a5.53,5.53,0,0,0,5.49,4.93,7.83,7.83,0,0,0,4.48-1.43.91.91,0,0,1,.37-.14.46.46,0,0,1,.28.17l.54.66c.2.26.2.43,0,.63a8.53,8.53,0,0,1-5.75,2,7.57,7.57,0,0,1-.14-15.13c4.44,0,7,3.59,7,7.86,0,.35-.05.46-.42.46Zm.05-1.48h10.06a5,5,0,0,0-4.87-5A5.27,5.27,0,0,0,144.4,22.76Z"/><path class="cls-5" d="M91.83,15.94a25.89,25.89,0,0,0-3.57.28.5.5,0,0,0-.4.3l-.65,1.37a.25.25,0,0,0,.26.35l.74-.12a21.47,21.47,0,0,1,3.54-.3c3,0,4,1.31,4,4.9a12.49,12.49,0,0,0-4.61-1c-3.51,0-5.85,1.51-5.85,4.61s2.34,4.73,5.08,4.73a7,7,0,0,0,5.72-2.7l.12,1.93c.08.35.2.46.42.46h.83c.31,0,.43-.11.43-.46V22.77C97.93,18.07,96.62,15.94,91.83,15.94Zm4,10.77a6.16,6.16,0,0,1-4.73,2.67c-2.31,0-3.59-1.28-3.59-3.05,0-1.93,1.43-3,4.13-3a10,10,0,0,1,4.19,1Z"/><path class="cls-5" d="M140.92,17.69l.51-1.07a.4.4,0,0,0-.27-.57,6.07,6.07,0,0,0-1-.13,6.83,6.83,0,0,0-6,3.12l-.32-2.35a.43.43,0,0,0-.48-.46h-.71c-.32,0-.43.12-.43.46V30.28c0,.34.11.46.43.46h1.28c.31,0,.43-.12.43-.46v-7A5.09,5.09,0,0,1,139.84,18h.57A.59.59,0,0,0,140.92,17.69Z"/><path class="cls-5" d="M60,10.73c.14-.22.2-.4.37-.4h.09c.14,0,.22.18.34.4L70.1,30.31a.29.29,0,0,1-.28.45H68.17c-.29,0-.4-.11-.57-.45l-2.23-4.85H55.43l-2.22,4.85c-.17.34-.29.45-.6.45H51c-.26,0-.37-.2-.26-.45Zm4.62,12.8-4.19-9.29h0L56.2,23.53Z"/><path class="cls-5" d="M76.72,31.25c-.14,0-.19-.11-.34-.4l-6.7-14.13c-.11-.26,0-.46.26-.46h1.42c.32,0,.43.09.6.46l4.82,10.4v0l4.78-10.42c.17-.37.32-.46.57-.46h1.43c.31,0,.37.23.28.46L77.18,30.85c-.16.25-.2.4-.37.4Z"/><path class="cls-5" d="M114.76,16.62c0-.34.12-.45.43-.45h1.28c.32,0,.43.11.43.45V24c0,3.39,1.71,5.05,4,5.05,2.48,0,4.07-2.4,4.07-5.25V16.62c0-.34.12-.45.43-.45h1.28c.31,0,.43.11.43.45V30.21c0,.34-.12.46-.43.46H126c-.23,0-.34-.12-.49-.46l-.21-2.44A5.57,5.57,0,0,1,120.41,31c-3,0-5.65-1.85-5.65-6.41Z"/><path class="cls-5" d="M111.21,29.07a.52.52,0,0,0-.68-.26,4.53,4.53,0,0,1-1.68.32c-2.28,0-3.27-1.23-3.27-4.56V18h4.13a.72.72,0,0,0,.64-.41l.47-1a.26.26,0,0,0-.23-.37h-5V13.31a.46.46,0,0,0-.46-.45H103.9a.43.43,0,0,0-.43.43v3h-1.4c-.34,0-.45.08-.45.45v.86a.46.46,0,0,0,.45.46h1.4v6.72c0,4,1.39,6.32,5.15,6.32a6.6,6.6,0,0,0,2.6-.66.56.56,0,0,0,.27-.74Z"/></g></g></svg>